<svg width="64" height="64" viewBox="0 0 64 64" fill="none" xmlns="http://www.w3.org/2000/svg">
<path d="M32.81 7.54007C32.2466 8.00923 31.8817 8.67441 31.789 9.40172C31.6962 10.129 31.8824 10.8645 32.31 11.4601C33.31 13.2101 37.1 13.0001 36.9 9.96007C36.7 6.92007 34 6.40007 32.81 7.54007ZM35.74 9.87007C35.7537 10.1694 35.6688 10.4649 35.4985 10.7113C35.3281 10.9578 35.0817 11.1416 34.7969 11.2347C34.5121 11.3277 34.2047 11.3248 33.9217 11.2265C33.6387 11.1281 33.3957 10.9397 33.23 10.6901C32.9989 10.3635 32.8994 9.96192 32.9513 9.56529C33.0032 9.16865 33.2027 8.80615 33.51 8.55007C34.15 7.93007 35.62 8.21007 35.74 9.87007ZM6.06002 25.5001C6.27002 25.5001 7.06002 25.7901 7.52002 25.4101C7.98002 25.0301 7.69002 25.0401 7.77002 23.8701C8.09203 21.5937 8.70714 19.3686 9.60002 17.2501C10.6 15.1201 14.52 10.4601 19.98 7.91007C25.44 5.36007 31.9 5.29007 37.81 6.75007C43.72 8.21007 49.9 13.3701 53 18.4101C56.1 23.4501 53.46 33.3301 51.71 37.2901C49.96 41.2501 42 45.8701 36 46.1201C33.5077 46.1765 31.0351 45.6657 28.7691 44.6262C26.5032 43.5868 24.5031 42.0459 22.92 40.1201C20.92 37.4101 19.08 30.6601 21.58 26.1201C22.4497 24.5995 23.7061 23.3361 25.2217 22.458C26.7374 21.5798 28.4584 21.1183 30.21 21.1201C31.96 20.9901 33.37 22.6601 33.75 22.7901C33.9229 22.7867 34.093 22.745 34.2479 22.668C34.4027 22.591 34.5386 22.4807 34.6457 22.3449C34.7528 22.2091 34.8285 22.0512 34.8673 21.8826C34.9061 21.7141 34.907 21.539 34.87 21.3701C34.67 20.4501 31.25 17.7901 24.17 21.1601C17.09 24.5301 18 31.4101 18.4 34.4601C18.8 37.5101 20.48 45.6601 30.9 47.5801C34.508 48.2733 38.2325 48.0446 41.7286 46.9154C45.2247 45.7862 48.3793 43.7928 50.9 41.1201C53.15 38.5401 56.49 34.1201 56.36 25.5001C56.23 16.8801 53.52 14.2501 46.6 8.75007C39.68 3.25007 28.6 2.87007 22.6 4.96007C16.6 7.05007 9.00002 12.3301 7.19002 17.3301C5.38002 22.3301 5.85002 25.5001 6.06002 25.5001ZM8.94002 34.1201C8.52002 32.3301 7.00002 31.5101 5.60002 32.2101C4.20002 32.9101 4.40002 34.5401 5.27002 36.0001C6.14002 37.4601 9.35002 35.9101 8.94002 34.1201ZM6.00002 35.1501C5.56002 34.4101 5.43002 33.5801 6.17002 33.2101C6.34666 33.1291 6.54021 33.0919 6.73428 33.1015C6.92835 33.1112 7.11724 33.1674 7.28498 33.2655C7.45272 33.3636 7.59436 33.5007 7.69794 33.6651C7.80151 33.8295 7.86396 34.0164 7.88002 34.2101C8.09002 35.1101 6.45002 35.9001 6.00002 35.1501ZM36.85 31.2501C37.65 25.5401 32.27 25.3501 30.06 25.8701C24.65 27.1601 25.27 32.4601 27.35 34.5001C29.43 36.5401 36.06 37.0001 36.85 31.2501ZM30.56 33.7901C29.9176 33.6633 29.3343 33.3298 28.8992 32.8405C28.464 32.3511 28.2009 31.7329 28.15 31.0801C27.9715 30.2957 28.1069 29.4726 28.5274 28.7867C28.9479 28.1009 29.62 27.6068 30.4 27.4101C31.33 27.0501 33.77 27.2901 34.6 28.4101C35.43 29.5301 34.98 31.7001 34.98 31.7001C34.98 31.7001 34.48 30.8301 34.35 30.8301C34.22 30.8301 33.69 31.0001 33.73 31.1601C33.9694 31.668 34.1505 32.2014 34.27 32.7501C34.19 32.9501 33.65 33.5801 33.52 33.4101C33.39 33.2401 32.44 30.6201 32.19 30.5801C31.94 30.5401 31.4 30.5801 31.44 30.7901C31.48 31.0001 32.85 33.6601 32.65 33.8701C32.45 34.0801 31.9 34.2501 31.77 33.9501C31.64 33.6501 30.77 31.2901 30.65 31.2501C30.53 31.2101 29.73 31.4501 29.81 31.7501C29.89 32.0501 30.73 33.7501 30.56 33.7901ZM36.4 50.1601C34.98 51.0001 34.52 52.6601 35.27 54.7101C36.02 56.7601 40.44 57.1201 41.06 53.9601C41.1971 53.3508 41.1616 52.7155 40.9576 52.1253C40.7537 51.5351 40.3893 51.0134 39.9053 50.6188C39.4214 50.2241 38.8371 49.9722 38.2179 49.8911C37.5987 49.8101 36.9692 49.9032 36.4 50.1601ZM40 53.6301C39.6 55.6301 36.77 55.4201 36.29 54.1101C35.81 52.8001 36.1 51.7401 37.01 51.2001C37.3744 51.0337 37.7781 50.9724 38.1754 51.0232C38.5728 51.074 38.9481 51.2347 39.2589 51.4874C39.5698 51.74 39.8039 52.0745 39.9349 52.4531C40.0658 52.8317 40.0884 53.2393 40 53.6301ZM24.56 35.5001C23.1 36.2101 23.35 37.8301 24.23 39.2901C25.11 40.7501 28.31 39.2101 27.9 37.4101C27.49 35.6101 26 34.8001 24.56 35.5001ZM24.96 38.4401C24.52 37.7001 24.39 36.8701 25.13 36.5101C25.3064 36.4266 25.5005 36.3875 25.6955 36.396C25.8904 36.4046 26.0803 36.4605 26.2488 36.559C26.4172 36.6575 26.5591 36.7956 26.6621 36.9613C26.7652 37.1271 26.8262 37.3154 26.84 37.5101C27.05 38.4001 25.41 39.1901 25 38.4401H24.96ZM49.56 20.4401C49.56 18.5601 47.56 17.2801 46.4 18.1401C46.1415 18.3099 45.9207 18.5312 45.7516 18.7902C45.5824 19.0492 45.4684 19.3402 45.4168 19.6452C45.3652 19.9502 45.3771 20.2626 45.4516 20.5628C45.5261 20.863 45.6618 21.1446 45.85 21.3901C46.73 22.6201 49.6 22.3301 49.56 20.4601V20.4401ZM46.94 19.0701C47.51 18.6401 48.49 19.2801 48.51 20.2101C48.53 21.1401 47.1 21.2901 46.67 20.6901C46.5776 20.5692 46.5111 20.4305 46.4745 20.2828C46.438 20.1351 46.4322 19.9815 46.4575 19.8314C46.4828 19.6814 46.5387 19.5381 46.6217 19.4106C46.7047 19.2831 46.8131 19.174 46.94 19.0901V19.0701ZM15.32 28.3101C15.1227 28.4397 14.9543 28.6089 14.8255 28.8068C14.6968 29.0048 14.6104 29.2273 14.5719 29.4603C14.5334 29.6933 14.5435 29.9317 14.6017 30.1606C14.6599 30.3894 14.7649 30.6038 14.91 30.7901C15.57 31.7101 17.76 31.4801 17.73 30.0601C17.7 28.6401 16.19 27.6601 15.32 28.3101ZM16.93 29.8901C16.93 30.6001 15.86 30.7101 15.52 30.2501C15.4453 30.1567 15.3911 30.0485 15.361 29.9327C15.3309 29.8169 15.3256 29.6961 15.3454 29.5781C15.3652 29.4601 15.4097 29.3476 15.476 29.248C15.5423 29.1484 15.6288 29.0639 15.73 29.0001C16.17 28.6901 16.91 29.1801 16.93 29.8901ZM56.4 37.5401C55.15 38.0801 54.85 40.0801 55.48 41.4101C56.11 42.7401 59.4 42.4101 59.48 39.9601C59.56 37.5101 57.52 37.0501 56.4 37.5401ZM56.3 40.6801C56.106 40.3242 56.0497 39.9094 56.1419 39.5147C56.2341 39.12 56.4684 38.7731 56.8 38.5401C57.0018 38.4542 57.223 38.4243 57.4403 38.4535C57.6577 38.4827 57.8631 38.57 58.035 38.7061C58.207 38.8422 58.339 39.0221 58.4174 39.227C58.4957 39.4318 58.5173 39.654 58.48 39.8701C58.46 41.2301 56.64 41.4101 56.3 40.6801ZM58.3 10.3301C58.09 7.33007 55.4 6.78007 54.22 7.91007C53.6566 8.37923 53.2917 9.04441 53.199 9.77172C53.1062 10.499 53.2924 11.2345 53.72 11.8301C54.69 13.5801 58.48 13.3701 58.27 10.3301H58.3ZM54.91 8.93007C55.56 8.31007 57.03 8.58007 57.14 10.2501C57.1582 10.5501 57.0764 10.8478 56.9075 11.0965C56.7386 11.3452 56.492 11.5309 56.2064 11.6245C55.9207 11.7182 55.6121 11.7147 55.3287 11.6143C55.0453 11.514 54.8031 11.3226 54.64 11.0701C54.402 10.7491 54.2945 10.3499 54.339 9.95285C54.3835 9.55578 54.5768 9.19032 54.88 8.93007H54.91ZM9.35002 50.4601C7.94002 51.2901 7.48002 53.0001 8.23002 55.0001C8.98002 57.0001 13.4 57.4101 14.02 54.2501C14.156 53.6403 14.1193 53.0047 13.914 52.4147C13.7087 51.8247 13.343 51.3036 12.8579 50.9099C12.3728 50.5162 11.7876 50.2656 11.1679 50.1861C10.5483 50.1067 9.91873 50.2015 9.35002 50.4601ZM12.93 53.9201C12.53 55.9201 9.70002 55.7101 9.22002 54.4001C8.95698 53.9123 8.885 53.344 9.01811 52.806C9.15121 52.2681 9.47987 51.7989 9.94002 51.4901C10.3046 51.3277 10.7069 51.2695 11.1025 51.3219C11.4981 51.3743 11.8715 51.5353 12.1812 51.7869C12.4909 52.0386 12.7248 52.3712 12.857 52.7477C12.9891 53.1243 13.0144 53.53 12.93 53.9201ZM56.19 47.2901C55.81 47.2901 55.52 48.0001 55.19 48.5001C54.86 49.0001 51.44 53.9101 47.56 56.0801C43.68 58.2501 36.56 58.9601 29.77 57.2501C22.98 55.5401 16.39 47.7101 13.77 39.8301C11.15 31.9501 14.44 27.0801 16.1 24.0001C17.76 20.9201 21.69 16.7901 26.23 16.3701C30.77 15.9501 38 15.6201 41.31 20.6201C42.7924 22.6582 43.6474 25.0848 43.77 27.6021C43.8925 30.1193 43.2774 32.6176 42 34.7901C39.63 39.3301 33.49 38.5501 33.25 38.7901C33.01 39.0301 33.04 40.4601 33.5 40.5801C36.0045 40.5859 38.4749 40 40.71 38.8701C43.29 37.3701 46.46 33.4601 45.33 25.3301C44.2 17.2001 37.33 14.4601 31.08 14.3301C24.83 14.2001 18.67 15.9101 14.46 22.5801C12.7358 25.145 11.6104 28.0648 11.1673 31.1235C10.7241 34.1821 10.9746 37.3013 11.9 40.2501C13.35 45.5001 17.1 53.7901 25.23 57.8701C33.36 61.9501 42.23 59.8701 47.94 57.8701C53.65 55.8701 57.65 48.4101 57.6 48.1601C57.55 47.9101 56.56 47.2901 56.19 47.2901Z" fill="#F500FF"/>
</svg>
